HIERARCHY
ROOT root
{
	OFFSET	0	13.1	24.9
	CHANNELS 6  Xposition Yposition Zposition Xrotation Yrotation Zrotation
	JOINT spine_1
	{
		OFFSET	0	9.99999	0
		CHANNELS 3  Xrotation Yrotation Zrotation
		JOINT spine_2
		{
			OFFSET	0	112	-10
			CHANNELS 3  Xrotation Yrotation Zrotation
			JOINT spine_3
			{
				OFFSET	0	206.5	19.3
				CHANNELS 3  Xrotation Yrotation Zrotation
				JOINT spine_4
				{
					OFFSET	0	110.4	14.6
					CHANNELS 3  Xrotation Yrotation Zrotation
					JOINT neck_1
					{
						OFFSET	0	71.8	-50.3
						CHANNELS 3  Xrotation Yrotation Zrotation
						JOINT neck_2
						{
							OFFSET	0	86.2	-25.8
							CHANNELS 3  Xrotation Yrotation Zrotation
							JOINT head_ee
							{
								OFFSET	0	179.8	-8.7
								CHANNELS 3  Xrotation Yrotation Zrotation
								End Site
								{
									OFFSET	1	0	0
								}
							}
						}
					}
					JOINT left_clavicle
					{
						OFFSET	-43.2	22.4	-70.8
						CHANNELS 3  Xrotation Yrotation Zrotation
						JOINT left_shoulder
						{
							OFFSET	-93.9	-5.79999	48.7
							CHANNELS 3  Xrotation Yrotation Zrotation
							JOINT left_elbow
							{
								OFFSET	-291.4	-30.8	15.2
								CHANNELS 3  Xrotation Yrotation Zrotation
								JOINT left_lowarm_twist
								{
									OFFSET	-110.7	-3.89999	13.6
									CHANNELS 3  Xrotation Yrotation Zrotation
									JOINT left_hand
									{
										OFFSET	-110.7	-3.89999	13.6
										CHANNELS 3  Xrotation Yrotation Zrotation
										JOINT left_ee
										{
											OFFSET	-80.8	-5.10001	12.1
											CHANNELS 3  Xrotation Yrotation Zrotation
											End Site
											{
												OFFSET	1	0	0
											}
										}
									}
								}
							}
						}
					}
					JOINT right_clavicle
					{
						OFFSET	43.2	22.4	-70.8
						CHANNELS 3  Xrotation Yrotation Zrotation
						JOINT right_shoulder
						{
							OFFSET	93.9	-5.79999	48.7
							CHANNELS 3  Xrotation Yrotation Zrotation
							JOINT right_elbow
							{
								OFFSET	291.4	-30.8	15.2
								CHANNELS 3  Xrotation Yrotation Zrotation
								JOINT right_lowarm_twist
								{
									OFFSET	110.7	-3.89999	13.6
									CHANNELS 3  Xrotation Yrotation Zrotation
									JOINT right_hand
									{
										OFFSET	110.7	-3.89999	13.6
										CHANNELS 3  Xrotation Yrotation Zrotation
										JOINT right_ee
										{
											OFFSET	80.8	-5.10001	12.1
											CHANNELS 3  Xrotation Yrotation Zrotation
											End Site
											{
												OFFSET	1	0	0
											}
										}
									}
								}
							}
						}
					}
				}
			}
		}
	}
	JOINT left_hip
	{
		OFFSET	-82.8	-127.5	0.300001
		CHANNELS 3  Xrotation Yrotation Zrotation
		JOINT left_knee
		{
			OFFSET	-28.2	-396.7	2.2
			CHANNELS 3  Xrotation Yrotation Zrotation
			JOINT left_ankle
			{
				OFFSET	-11.7	-411.3	35.4
				CHANNELS 3  Xrotation Yrotation Zrotation
				JOINT left_toes
				{
					OFFSET	0	-60	-88.6
					CHANNELS 3  Xrotation Yrotation Zrotation
					JOINT left_foot_ee
					{
						OFFSET	-22.5	-16.5	-42.2
						CHANNELS 3  Xrotation Yrotation Zrotation
						End Site
						{
							OFFSET	1	0	0
						}
					}
				}
			}
		}
	}
	JOINT right_hip
	{
		OFFSET	82.8	-127.5	0.300001
		CHANNELS 3  Xrotation Yrotation Zrotation
		JOINT right_knee
		{
			OFFSET	28.2	-396.7	2.2
			CHANNELS 3  Xrotation Yrotation Zrotation
			JOINT right_ankle
			{
				OFFSET	11.7	-411.3	35.4
				CHANNELS 3  Xrotation Yrotation Zrotation
				JOINT right_toes
				{
					OFFSET	0	-60	-88.6
					CHANNELS 3  Xrotation Yrotation Zrotation
					JOINT right_foot_ee
					{
						OFFSET	22.5	-16.5	-42.2
						CHANNELS 3  Xrotation Yrotation Zrotation
						End Site
						{
							OFFSET	1	0	0
						}
					}
				}
			}
		}
	}
}
MOTION
Frames: 12
Frame Time: 0.02
1182.7 607.174 -1584.59 -74.0224 67.1534 82.4093 8.97461 -0.492962 -2.32634 8.97756 -0.343974 -2.35297 8.98572 -0.214504 -2.36828 8.97837 -0.585738 -2.30474 -19.3316 -11.773 -0.962672 -20.0347 -22.1772 -5.85922 -0.0 0.0 -0.0 6.79118 16.7052 12.668 -23.7394 0.754822 62.4593 0.187343 -5.30224 0.00867477 -10.3604 -0.478054 1.23352 1.71154 16.5727 17.5275 -0.0 0.0 -0.0 5.13292 -17.0223 -10.0007 -18.09 26.5815 -51.9188 0.986414 26.0415 -0.228113 -26.3722 1.63171 -2.92046 -2.87047 26.0183 30.741 0.0 0.0 0.0 58.1973 -16.9042 1.89738 -5.66722 0.191503 0.848315 1.77158 7.49377 -0.258152 -0.0259058 0.0 0.0 -0.0 0.0 -0.0 1.75981 -26.934 -17.6917 -12.963 -0.313098 -1.96048 38.1596 22.8391 5.31299 6.69346 -0.0 -0.0 0.0 0.0 0.0 
1150.98 607.585 -1594.69 -73.8785 67.0639 83.4057 9.02664 -0.546602 -2.37313 9.02968 -0.394531 -2.40308 9.03998 -0.264581 -2.42083 9.03237 -0.643479 -2.34873 -19.2594 -12.655 -1.16834 -20.069 -23.7659 -6.43799 -0.0 0.0 -0.0 7.51005 15.8895 13.9035 -22.7554 3.43007 61.9921 0.186666 -5.28319 0.00861222 -9.4676 -0.428135 1.13079 2.00762 17.7556 19.8175 -0.0 0.0 -0.0 5.08551 -19.3066 -9.87161 -17.2987 27.9419 -52.6632 0.897768 23.9758 -0.190632 -29.2001 1.8825 -3.1822 -2.6734 25.42 29.0933 0.0 0.0 0.0 57.2241 -17.0578 0.656852 -9.23718 0.268706 1.39062 -2.78302 6.35899 0.4101 6.62236 -0.0 -0.0 -0.0 0.0 -0.0 0.772229 -26.6793 -18.1615 -16.6761 -0.320404 -2.53004 38.2384 21.6941 5.26615 9.79867 -0.0 -0.0 0.0 0.0 0.0 
1121.87 611.026 -1605.46 -73.8709 68.5887 84.4947 8.85195 -0.616982 -2.64553 8.85573 -0.447451 -2.6794 8.86907 -0.294572 -2.70047 8.85961 -0.717217 -2.62015 -19.9096 -13.5042 -1.41587 -20.8876 -25.3011 -7.22885 -0.0 0.0 -0.0 7.75062 15.1589 14.3639 -22.0476 5.53799 61.6768 0.186643 -5.28253 0.00861016 -9.24216 -0.415786 1.10473 2.19982 19.5401 21.5898 -0.0 0.0 -0.0 4.76265 -21.4055 -9.33661 -18.1736 28.4565 -52.6352 0.771744 20.9218 -0.142492 -32.506 2.19169 -3.47216 -2.29344 26.8258 26.8571 0.0 0.0 0.0 57.1071 -17.5682 -0.703844 -15.4224 0.322065 2.3377 -5.92393 4.78385 0.879559 13.4367 -0.0 -0.0 -0.0 0.0 -0.0 0.419244 -26.1288 -18.3436 -21.6391 -0.272561 -3.2898 38.4107 20.9366 5.24821 12.9052 -0.0 -0.0 0.0 0.0 0.0 
1093.62 612.162 -1618.2 -75.3834 69.2088 87.0349 8.67951 -0.675185 -2.9091 8.68409 -0.488786 -2.94613 8.70028 -0.312021 -2.97003 8.68881 -0.776971 -2.88361 -19.8366 -14.115 -0.244717 -20.9752 -27.0625 -6.4519 -0.0 0.0 -0.0 7.92876 14.2145 14.7438 -20.0827 7.03721 60.9817 0.200206 -5.664 0.00990381 -8.90866 -0.397704 1.06609 2.55101 21.2355 24.3407 -0.0 0.0 -0.0 4.91682 -22.9104 -9.51505 -18.812 28.8416 -52.3525 0.629349 17.3156 -0.0958304 -35.877 2.52374 -3.7491 -1.52887 28.5074 22.1553 0.0 0.0 0.0 57.0522 -19.2022 -1.54584 -19.7472 0.298561 3.00068 -2.44301 3.51395 0.360853 15.5546 -0.0 -0.0 -0.0 0.0 -0.0 0.10419 -25.2479 -18.5904 -25.3087 -0.194982 -3.84749 38.5167 19.1628 5.18288 17.9346 -0.0 -0.0 0.0 0.0 0.0 
1068.01 616.531 -1623.86 -76.0415 70.002 89.1635 8.54014 -0.766396 -3.44635 8.54658 -0.54568 -3.48807 8.5675 -0.328478 -3.51514 8.55134 -0.879182 -3.41935 -20.7985 -13.7024 2.2049 -22.0631 -27.4793 -4.27861 -0.0 0.0 -0.0 7.52806 13.3294 14.1237 -15.5431 7.46797 63.4741 0.214083 -6.05377 0.0113204 -7.89193 -0.343978 0.947671 2.7743 24.2994 26.5244 -0.0 0.0 -0.0 3.70241 -23.9802 -7.80429 -19.5165 29.8576 -53.3906 0.559539 15.4924 -0.0761129 -38.1167 2.75313 -3.92214 -0.840739 28.3924 17.5024 0.0 0.0 0.0 56.344 -21.2522 -1.35331 -22.8595 0.250729 3.47579 0.778754 2.58525 -0.114335 18.5681 -0.0 -0.0 -0.0 0.0 -0.0 1.97907 -25.0572 -19.2067 -27.966 -0.116584 -4.24772 35.8601 19.165 4.92617 21.7189 -0.0 -0.0 0.0 0.0 0.0 
1040.27 612.229 -1627.71 -78.156 70.424 91.6856 8.64168 -0.820857 -3.74507 8.64929 -0.581061 -3.78963 8.67298 -0.352263 -3.81766 8.6539 -0.950354 -3.71437 -20.9354 -12.9778 3.91477 -22.1281 -26.9149 -2.37367 -0.0 0.0 -0.0 7.21732 13.0465 13.6071 -12.3409 8.07093 65.2607 0.224679 -6.35101 0.0124652 -7.07719 -0.302451 0.852108 2.99789 26.625 28.4453 -0.0 0.0 -0.0 2.6961 -24.5371 -6.44424 -21.0122 30.1828 -53.4553 0.525567 14.5932 -0.0672955 -40.7389 3.03009 -4.11322 -0.111501 28.4234 12.7354 0.0 0.0 0.0 55.3083 -25.1523 -1.25788 -25.9006 0.179129 3.93693 5.17751 0.773691 -0.753624 21.0198 -0.0 -0.0 -0.0 0.0 -0.0 3.83409 -22.9681 -18.6747 -32.1956 0.0462728 -4.87624 35.2147 17.4837 4.79888 25.9322 -0.0 -0.0 0.0 0.0 0.0 
1018.39 618.19 -1639.52 -78.314 70.1466 92.9199 8.71243 -1.00322 -4.19047 8.7219 -0.734779 -4.24568 8.75767 -0.485145 -4.28133 8.73396 -1.15463 -4.15137 -20.2289 -12.6525 5.20708 -21.3281 -26.9752 -0.841062 -0.0 0.0 -0.0 6.96995 13.9647 13.1309 -10.1201 9.04951 66.919 0.200559 -5.67392 0.00993864 -5.77689 -0.239008 0.698411 3.18861 27.0905 29.7742 -0.0 0.0 -0.0 1.98125 -25.3803 -5.52404 -23.5757 30.0069 -53.4015 0.573132 15.8501 -0.0797845 -44.6287 3.45633 -4.37293 0.44785 28.559 9.18146 0.0 0.0 0.0 54.1915 -28.2709 -1.92628 -28.0252 0.114624 4.2566 6.92516 -0.447282 -1.00544 23.9123 -0.0 -0.0 -0.0 0.0 -0.0 6.07255 -21.7261 -18.2293 -36.1365 0.239443 -5.44985 34.4542 17.3065 4.71545 29.5381 -0.0 -0.0 0.0 0.0 0.0 
1000.04 615.336 -1643.45 -79.4417 70.2118 94.4282 8.76619 -1.12432 -4.44143 8.77677 -0.839716 -4.5038 8.82162 -0.580289 -4.54443 8.79513 -1.29003 -4.39625 -19.7301 -12.3349 6.25598 -20.744 -26.9357 0.410176 -0.0 0.0 -0.0 6.78698 14.6014 12.7869 -8.60824 9.91073 67.9949 0.194535 -5.50455 0.00935193 -4.79211 -0.193295 0.581089 3.3252 27.3658 30.7215 -0.0 0.0 -0.0 1.4852 -25.9333 -4.90571 -25.3659 29.9328 -53.376 0.627068 17.2565 -0.0951525 -47.4094 3.77134 -4.5406 0.829366 28.5948 6.75501 0.0 0.0 0.0 52.2722 -30.3409 -2.80971 -29.6476 0.0574028 4.499 8.24489 -1.36163 -1.19476 25.9471 -0.0 -0.0 -0.0 0.0 -0.0 9.32475 -21.2669 -17.7446 -39.2519 0.419864 -5.89329 33.9068 17.2045 4.65552 32.0505 -0.0 -0.0 0.0 0.0 0.0 
978.558 631.66 -1645.39 -78.8074 69.768 94.8212 8.61735 -1.25954 -4.7287 8.62928 -0.956448 -4.79904 8.68592 -0.668935 -4.84737 8.65598 -1.42526 -4.68152 -20.5779 -12.5769 6.00875 -21.7064 -27.1989 -0.151975 -0.0 0.0 -0.0 7.93096 15.9521 14.5967 -6.21165 11.0594 67.1104 0.19783 -5.5972 0.00967072 -3.57391 -0.139552 0.434912 3.26104 26.2349 30.1102 -0.0 0.0 -0.0 1.65922 -26.6746 -5.17333 -29.2687 29.1711 -52.1724 0.678702 18.5832 -0.111041 -49.6973 4.03636 -4.66698 0.831224 28.0331 6.49767 0.0 0.0 0.0 50.2866 -31.6218 -3.49998 -30.9424 0.00681696 4.69127 12.0501 -0.0834653 -1.7163 27.3143 -0.0 -0.0 -0.0 0.0 -0.0 11.9524 -21.0362 -17.4579 -41.3481 0.554755 -6.18596 34.03 18.1296 4.70067 33.9973 -0.0 -0.0 0.0 0.0 0.0 
959.604 629.971 -1639.01 -79.4052 69.8125 95.5869 8.62731 -1.34383 -4.89594 8.64005 -1.02996 -4.97127 8.70422 -0.734034 -5.02337 8.67223 -1.51725 -4.84511 -21.6575 -12.9167 5.5513 -22.9412 -27.5292 -1.02502 -0.0 0.0 -0.0 8.72302 16.7102 15.836 -3.89256 12.2253 64.9696 0.200297 -5.66655 0.00991279 -2.58186 -0.0980951 0.315061 3.23639 25.075 29.7388 -0.0 0.0 -0.0 1.46131 -25.7602 -4.86382 -31.9438 28.5724 -50.6831 0.715377 19.5132 -0.123011 -51.1654 4.20896 -4.74246 0.939425 27.6807 5.64987 0.0 0.0 0.0 48.9056 -32.3752 -3.73089 -31.8652 -0.0318817 4.82758 14.8729 0.651801 -2.09103 29.163 -0.0 -0.0 -0.0 0.0 -0.0 14.3482 -19.2088 -18.3588 -42.2645 0.61708 -6.31234 34.434 18.7635 4.76578 35.3646 -0.0 -0.0 0.0 0.0 0.0 
938.016 633.967 -1641.07 -78.6943 70.5943 95.4519 8.74738 -1.45017 -5.01249 8.76065 -1.1287 -5.09432 8.83415 -0.837495 -5.15007 8.8009 -1.63935 -4.95398 -21.975 -13.5279 4.48714 -23.394 -28.1723 -2.41924 -0.0 0.0 -0.0 9.90624 17.3779 17.7241 -3.74553 13.8981 62.4245 0.194319 -5.49849 0.00933131 -0.84636 -0.0305886 0.103756 3.13857 23.1354 28.6967 -0.0 0.0 -0.0 1.42862 -25.2143 -4.78609 -33.7526 28.8761 -51.3211 0.741464 20.1682 -0.131865 -53.2704 4.45968 -4.84292 1.08487 25.9481 3.94575 0.0 0.0 0.0 46.8393 -32.4592 -4.71569 -32.7613 -0.0715679 4.95937 16.8507 1.14305 -2.34682 31.04 -0.0 -0.0 -0.0 0.0 -0.0 17.1031 -16.3986 -18.2984 -42.8658 0.659078 -6.39473 34.27 19.5173 4.77751 36.3071 -0.0 -0.0 0.0 0.0 0.0 
913.776 637.186 -1649.24 -74.5947 70.9404 91.5837 8.72052 -1.51613 -5.12921 8.73436 -1.18713 -5.21497 8.81442 -0.887473 -5.27408 8.77968 -1.70822 -5.06862 -22.1249 -14.2146 3.98302 -23.7011 -29.2422 -3.30893 -0.0 0.0 -0.0 10.5221 17.8357 18.6866 -3.87682 15.907 61.0271 0.19449 -5.5033 0.00934768 1.79074 0.0596438 -0.22093 3.15991 21.2758 28.4362 -0.0 0.0 -0.0 1.39941 -24.8176 -4.7214 -35.4954 28.9671 -51.4907 0.75597 20.5301 -0.136909 -56.0309 4.79368 -4.96057 1.33182 25.1759 2.00222 0.0 0.0 0.0 45.7276 -32.5985 -5.35327 -33.2906 -0.0959719 5.0369 17.9055 1.50661 -2.48039 32.2571 -0.0 -0.0 -0.0 0.0 -0.0 18.3036 -13.0901 -18.4658 -44.75 0.79627 -6.65004 35.9217 22.3259 5.0669 37.9582 -0.0 -0.0 0.0 0.0 0.0 
